User Type,Username,Date,Text
[T],-Gabe-,2012-01-25T17:27Z,"Overall bit rate                 : 5 873 Kbps
Writing application              : Lavf51.12.1

Video
Format                           : xvid
Codec ID                         : xvid
Duration                         : 50mn 56s
Bit rate                         : 5 601 Kbps
Width                            : 1 472 pixels
Height                           : 1 080 pixels
Display aspect ratio             : 4:3
Frame rate                       : 47.952 fps
Bits/(Pixel*Frame)               : 0.073
Stream size                      : 1.99 GiB (95%)

Audio
ID                               : 1
Format                           : MPEG Audio
Format version                   : Version 1
Format profile                   : Layer 3
Mode                             : Joint stereo
Mode extension                   : MS Stereo
Codec ID                         : 55
Codec ID/Hint                    : MP3
Duration                         : 50mn 57s
Bit rate mode                    : Constant
Bit rate                         : 256 Kbps
Channel(s)                       : 2 channels
Sampling rate                    : 44.1 KHz
Compression mode                 : Lossy
Stream size                      : 93.3 MiB (4%)
Interleave, duration             : 26 ms (1.25 video frame)
Interleave, preload duration     : 26 ms
Writing library                  : LAME3.97


Personally, If I'd take a 1080p I'd avoid this one."
